<svg width="439" height="268" viewBox="0 0 439 268" fill="none" xmlns="http://www.w3.org/2000/svg">
<mask id="mask0_13_389" style="mask-type:alpha" maskUnits="userSpaceOnUse" x="0" y="0" width="439" height="268">
<path d="M19.9785 0C8.94467 0 0 8.94187 0 19.9723V248.028C0 259.058 8.94467 268 19.9785 268H392.577C403.611 268 412.556 259.058 412.556 248.028V176.828L437.848 139.13C439.384 136.84 439.384 133.127 437.848 130.837L412.556 93.1388V19.9723C412.556 8.94189 403.611 0 392.577 0H19.9785Z" fill="#969AF7"/>
<path d="M19.9785 0C8.94467 0 0 8.94187 0 19.9723V248.028C0 259.058 8.94467 268 19.9785 268H392.577C403.611 268 412.556 259.058 412.556 248.028V176.828L437.848 139.13C439.384 136.84 439.384 133.127 437.848 130.837L412.556 93.1388V19.9723C412.556 8.94189 403.611 0 392.577 0H19.9785Z" fill="url(#paint0_linear_13_389)"/>
<path d="M19.9785 0C8.94467 0 0 8.94187 0 19.9723V248.028C0 259.058 8.94467 268 19.9785 268H392.577C403.611 268 412.556 259.058 412.556 248.028V176.828L437.848 139.13C439.384 136.84 439.384 133.127 437.848 130.837L412.556 93.1388V19.9723C412.556 8.94189 403.611 0 392.577 0H19.9785Z" fill="url(#paint1_linear_13_389)"/>
</mask>
<g mask="url(#mask0_13_389)">
<rect opacity="0.06" x="361.2" y="110" width="441.517" height="441.517" rx="30" transform="rotate(45 361.2 110)" fill="white"/>
</g>
<defs>
<linearGradient id="paint0_linear_13_389" x1="219.5" y1="0" x2="219.5" y2="268" gradientUnits="userSpaceOnUse">
<stop stop-color="#969AF7"/>
<stop offset="1" stop-color="#686EEC"/>
</linearGradient>
<linearGradient id="paint1_linear_13_389" x1="-53.4095" y1="-20.988" x2="439.443" y2="52.8194" gradientUnits="userSpaceOnUse">
<stop offset="0.0851517" stop-color="#041080"/>
<stop offset="1" stop-color="#0926C0"/>
</linearGradient>
</defs>
</svg>
